PathFileType	4	(X/Y/Z)	Patient4_TMGait_0pt8_01_left_37.trc.trc
DataRate	CameraRate	NumFrames	NumMarkers	Units	OrigDataRate	OrigDataStartFrame	OrigNumFrames
85.889570552147	85.889570552147	5	33	mm	85.889570552147	71	       141
Frame#	Time	Sacral			L.Shoulder			Chest			R.Shoulder			Neck			R.ASIS			L.ASIS			R.Thigh.Superior			R.Thigh.Lateral			R.Thigh.Inferior			R.Patella			L.Thigh.Superior			L.Thigh.Lateral			L.Thigh.Inferior			L.Patella			L.Shank.Superior			L.Shank.Lateral			L.Shank.Inferior			R.Shank.Superior			R.Shank.Lateral			R.Shank.Inferior			R.Heel			R.Midfoot.Superior			R.Midfoot.Lateral			R.Toe			L.Heel			L.Midfoot.Lateral			L.Midfoot.Superior			L.Toe			L.Elbow			L.Wrist			R.Elbow			R.Wrist			
		X1	Y1	Z1	X2	Y2	Z2	X3	Y3	Z3	X4	Y4	Z4	X5	Y5	Z5	X6	Y6	Z6	X7	Y7	Z7	X8	Y8	Z8	X9	Y9	Z9	X10	Y10	Z10	X11	Y11	Z11	X12	Y12	Z12	X13	Y13	Z13	X14	Y14	Z14	X15	Y15	Z15	X16	Y16	Z16	X17	Y17	Z17	X18	Y18	Z18	X19	Y19	Z19	X20	Y20	Z20	X21	Y21	Z21	X22	Y22	Z22	X23	Y23	Z23	X24	Y24	Z24	X25	Y25	Z25	X26	Y26	Z26	X27	Y27	Z27	X28	Y28	Z28	X29	Y29	Z29	X30	Y30	Z30	X31	Y31	Z31	X32	Y32	Z32	X33	Y33	Z33	

71	41.695000000000	835.605103550262	998.704462277728	422.206560078222	1035.639802296611	1433.082186155986	263.565547079587	1124.237496149255	1352.946646533432	428.126055349056	1029.583094803119	1422.125088138916	598.027063390578	1006.453099591574	1485.904336491875	418.517564908922	1059.130857208832	935.345511322551	548.032741772471	1051.564407177139	954.553710302247	272.170664477567	1137.301212358113	771.007174430251	520.209378885339	1104.343696306150	647.711580898373	598.272505471643	1193.023159943678	613.477792918446	516.319737549144	1232.200449099503	533.149687271123	535.016315684843	1045.804428667165	725.081963340856	299.689738804741	921.170742235882	635.315898797683	243.031349828482	979.892860586486	539.083726491507	304.912492042151	963.158251260694	474.037879788504	315.570467608794	927.910216556096	409.687329995534	311.112827954937	821.088514127320	307.066046503879	268.314368083371	860.520140398897	191.719541695652	341.371431816245	1220.169373594310	445.319861062496	546.834521113873	1175.046876157386	329.490941007588	613.369496490255	1248.861746343818	246.978564752030	561.681838304984	1167.428422360598	54.785234100705	532.895287229433	1325.399875260396	137.051222923831	578.315291042941	1248.804934125798	57.847662572428	609.858080705734	1449.765108581987	105.669645358652	609.792164745766	720.477421896259	43.562853179903	394.814464702282	791.279000641871	36.820974831630	312.589441223056	877.038808977878	96.300335676123	334.472916736456	1002.787453275036	39.809237040049	302.333986015073	1149.908553187862	1139.636141349930	94.447895354849	1397.525401931184	1170.472564903702	148.099173911251	859.889221055200	1117.164134764836	681.889515613466	804.395453956859	862.695736549236	691.361133275860	
72	41.706642857143	837.356365104523	996.383559973227	424.283230904142	1035.084043320799	1431.052356994052	264.481760850066	1124.412732267492	1351.672841800730	428.937987315221	1029.865938365766	1420.877926792587	598.922223414662	1006.271494066758	1484.012766072149	419.289489011651	1061.389619714557	932.811303314240	549.223081533869	1052.907766677811	952.961605218530	273.401532829311	1137.414518233719	766.065726935946	521.486410888850	1102.109035835960	643.050569099564	599.026499802727	1190.031704451623	607.922068893293	516.607030211385	1228.124140266213	528.683898075231	534.631286808169	1045.093282592667	723.207660730024	300.081696845150	919.118106462709	634.722507983115	243.702864512568	976.897590886534	537.735882635244	305.279150442219	959.472066921830	472.464463650828	315.816866289527	923.194864758458	408.644525356160	311.285992498848	814.754061377895	307.620058467516	268.499477891361	852.734286643157	191.556701899360	341.144774923066	1217.806547004511	441.109194408183	546.612002658886	1174.410536827062	324.123765862796	612.122848578168	1250.255619305661	243.290742020275	560.429703121698	1172.673889848177	49.930967185222	530.360430262929	1329.036492992867	134.427216512831	576.496439132736	1253.572681329902	54.355976735747	607.768397673073	1453.888534631926	105.225829894199	608.785487802906	711.193578666946	44.466218831129	394.534769587767	782.031056781070	37.146953851740	312.424697982275	867.923830220850	96.387122176704	334.271293062217	993.473777194058	39.554756638111	302.258506918502	1151.967915461365	1139.394053989465	94.964693818563	1398.214599169232	1174.918587512453	150.504421401887	855.990903374415	1119.368037925799	682.833481772557	796.503872420514	865.705750106438	691.284422282944	
73	41.718285714286	839.270348654229	994.121754850449	426.585816669340	1034.491597775414	1429.021735773179	265.496192576460	1124.619841211497	1350.524769916009	429.865970974154	1030.138431778974	1419.651946545447	599.957091445542	1006.053692393164	1482.167947219651	420.220301628628	1063.829407876978	930.331864893683	550.634634043942	1054.467086705692	951.374226820153	274.867084128307	1138.122551889133	761.609001580414	522.822682549185	1100.462060829512	638.715250399464	599.525273861177	1187.856203894198	602.995020259549	516.895033223827	1224.659407391900	524.334805097233	534.211958088522	1044.861255832306	721.364274174576	300.728183330656	917.674789773250	634.071754546070	244.569491377911	974.566032408085	536.339233009283	305.848948577306	956.447833672416	470.756932715499	316.262933709769	919.045801136817	407.483453624403	311.608740383442	808.875685825040	308.252447904219	268.771608651673	845.152193072624	191.405752942047	340.954980996158	1215.394561018346	436.751571423514	546.188424904428	1172.554573369048	319.055783452062	610.444395146935	1249.624185271073	239.304838327071	558.821912234602	1173.882683847206	46.186575125788	527.456369097498	1329.474699837946	130.887960127709	574.210815907352	1254.285930843318	51.028151842292	605.302508466684	1454.354495845094	102.353827428072	607.220085975705	701.917962749298	45.567793478101	394.205125257734	772.796650683689	37.533312213999	312.220977108644	858.882205025351	96.513143364788	334.009078062511	984.178746248265	39.295246637968	302.171011443064	1153.183615348305	1138.630200242224	95.595197234295	1398.212742453748	1177.878025404161	152.876262838580	853.422703573025	1120.778774054075	683.993592201426	790.422803285707	867.883822540899	691.576788407995	
74	41.729928571429	841.318527847417	992.002946927840	429.078895639959	1033.913130398709	1427.042448669329	266.620133892536	1124.896614446705	1349.524008500459	430.918970815681	1030.450658838694	1418.477686151132	601.146360374763	1005.844261198966	1480.423072153367	421.319750006371	1066.417438842992	927.985729066427	552.259059368987	1056.201600222640	949.836712022266	276.555034618914	1139.433467837386	757.735854575979	524.224533457225	1099.398816055690	634.801039898727	599.781274498292	1186.551323389435	598.809386478073	517.229605128820	1221.889513160253	520.225198240429	533.755693857669	1045.089716486088	719.593935217330	301.601678549021	916.833829415961	633.378898757737	245.629217028255	972.943695123495	534.913881928992	306.586159606613	954.150220097814	468.920963345114	316.849702459384	915.494913742267	406.219866248158	312.050304804557	803.468265765848	309.002590701336	269.129584130220	837.799473782107	191.301358416460	340.780225482807	1213.080445707790	432.391699996061	545.587844362962	1169.811512317583	314.379278724034	608.525130672187	1247.310501314226	235.111220624554	556.976402462885	1171.476192207619	43.448285374396	524.477447018431	1327.161864468527	126.574817598526	571.599063013699	1251.467039543909	47.886523152138	602.696568378713	1451.721759253298	97.309013795431	605.144506887779	692.658970928894	46.923330965284	393.822905688701	763.576422499156	37.994483825952	311.979909039024	849.944148573547	96.681845761269	333.660269910796	974.906161568877	39.042769064326	302.073671256148	1153.529953723552	1137.318983627724	96.362394127098	1397.559492245289	1179.326863677021	155.189928172778	852.204385002870	1121.340217266726	685.369947818022	786.187335233949	869.165144420785	692.290104939867	
75	41.741571428571	843.469251950819	990.107065335650	431.720646988965	1033.397475878145	1425.175294135926	267.863295644049	1125.279249610549	1348.694500525453	432.102386611550	1030.857401677172	1417.395791409518	602.500307050900	1005.690606702096	1478.838115254963	422.592537131331	1069.118296664434	925.857154296173	554.076365983491	1058.070627294753	948.401578491700	278.437527782165	1141.316768000131	754.513438316668	525.699793488129	1098.902404367472	631.403824243324	599.854383979972	1186.110481479431	595.434839781059	517.654720229139	1219.853709779522	516.469919569101	533.284084450749	1045.752078259591	717.947313741255	302.665631580643	916.585419828325	632.660279292004	246.872638459960	972.085018371042	533.485973225332	307.444932384042	952.657588080865	466.966420403111	317.498928298334	912.582362842553	404.875433017151	312.567356600622	798.554886511703	309.920039667553	269.569071412911	830.715506391832	191.288832538727	340.591847268286	1210.991770966972	428.195362114217	544.875280457621	1166.546497773922	310.207179664571	606.592407377326	1243.720527824327	230.865946633429	555.042922387589	1166.070614425295	41.603033808075	521.696434751437	1322.636901427084	121.756721855520	568.844888370068	1245.796984304201	45.001918611151	600.183942305626	1446.640094674198	90.592588146892	602.684555670441	683.436441797507	48.610873123484	393.386290626572	754.376259799016	38.560171466018	311.704567493874	841.151308894622	96.896570525152	333.198366800928	965.659879334049	38.809977570161	301.971201070737	1152.987267606284	1135.460110323570	97.299324811675	1396.291874444276	1179.242524198762	157.419528916121	852.324064273384	1121.059468311708	686.967703531229	783.834367033053	869.531846350614	693.465159684525	
